<svg xmlns="http://www.w3.org/2000/svg" viewBox="0 0 48 48">
  <rect width="48" height="48" rx="10" fill="#181717"/>
  <path fill="#fff" d="M24 8.5c-8.8 0-16 7.2-16 16 0 7.1 4.6 13.1 11 15.2.8.1 1.1-.3 1.1-.8v-3c-4.5 1-5.4-1.9-5.4-1.9-.7-1.8-1.8-2.3-1.8-2.3-1.5-1 .1-1 .1-1 1.6.1 2.5 1.7 2.5 1.7 1.4 2.5 3.8 1.8 4.7 1.4.1-1 .6-1.8 1-2.2-3.6-.4-7.3-1.8-7.3-7.9 0-1.7.6-3.2 1.7-4.3-.2-.4-.7-2 .2-4.2 0 0 1.4-.4 4.5 1.6a15.5 15.5 0 0 1 8.2 0c3.1-2.1 4.5-1.6 4.5-1.6.9 2.2.4 3.8.2 4.2 1 1.1 1.7 2.6 1.7 4.3 0 6.1-3.7 7.5-7.3 7.9.6.5 1.1 1.5 1.1 3v4.4c0 .5.3.9 1.1.8a16 16 0 0 0 11-15.2c0-8.8-7.2-16-16-16Z"/>
</svg>
